<?xml version="1.0" encoding="UTF-8"?>
<svg version="1.1" xmlns="http://www.w3.org/2000/svg" width="1000" height="1000">
<path d="M0 0 C1.27685165 0.00222061 2.55370331 0.00444122 3.86924744 0.00672913 C4.57165054 0.0065831 5.27405365 0.00643707 5.9977417 0.00628662 C8.32985983 0.00698579 10.66189904 0.01477835 12.9940033 0.02259827 C14.60683142 0.02446243 16.21966012 0.02588634 17.83248901 0.02688599 C22.08550062 0.03071129 26.33847828 0.04054167 30.59147644 0.05158997 C34.92812135 0.06180383 39.26477171 0.06638355 43.60142517 0.07142639 C52.11641474 0.08216393 60.63137667 0.09924049 69.14634705 0.12025452 C71.22812897 4.83398993 73.30941067 9.54794578 75.39024353 14.26210022 C76.09713968 15.86339685 76.80416881 17.46463477 77.51133728 19.06581116 C78.53195711 21.37677064 79.55208719 23.68794579 80.5721283 25.99916077 C80.88475113 26.70674026 81.19737396 27.41431976 81.51947021 28.14334106 C81.8195549 28.82351791 82.11963959 29.50369476 82.42881775 30.20448303 C82.81853508 31.08717613 82.81853508 31.08717613 83.21612549 31.98770142 C84.54121245 35.02549201 85.84275843 38.07317736 87.14634705 41.12025452 C88.59821915 41.1163269 88.59821915 41.1163269 90.079422 41.11231995 C121.21720194 41.03675311 152.3495171 41.28200668 183.48564148 41.58381653 C189.90377975 41.64559208 196.32193929 41.70507512 202.74009705 41.76478577 C215.20886812 41.88110816 227.67761478 41.9998482 240.14634705 42.12025452 C240.54717117 50.61487098 240.84560221 59.10530384 241.02715397 67.60715008 C241.11447461 71.55909399 241.23191252 75.5044079 241.42881775 79.45252991 C242.56308343 102.82712513 238.93012252 117.81017027 225.31713867 136.99455261 C221.85782641 141.97558295 218.83519164 147.20316639 215.77134705 152.43275452 C214.54328253 154.47847056 213.31307062 156.52290027 212.0799408 158.56556702 C206.92126607 167.14625474 201.82056121 175.76139353 196.72105408 184.37733459 C188.2561019 198.66158719 179.68962439 212.88145895 171.14634705 227.12025452 C216.68634705 227.61525452 216.68634705 227.61525452 263.14634705 228.12025452 C263.14634705 251.22025452 263.14634705 274.32025452 263.14634705 298.12025452 C203.41634705 298.12025452 143.68634705 298.12025452 82.14634705 298.12025452 C82.14634705 266.12025452 82.14634705 266.12025452 84.33384705 255.80775452 C86.14329354 238.63231995 86.14329354 238.63231995 74.14634705 201.12025452 C44.44634705 201.12025452 14.74634705 201.12025452 -15.85365295 201.12025452 C-19.81365295 209.37025452 -23.77365295 217.62025452 -27.85365295 226.12025452 C-33.2169342 236.98744202 -33.2169342 236.98744202 -35.71107483 242.03431702 C-36.11382629 242.84932678 -36.51657776 243.66433655 -36.93153381 244.50404358 C-37.77487517 246.20573533 -38.62137319 247.90586539 -39.47059631 249.60462952 C-40.7284715 252.12367955 -41.97383033 254.64857735 -43.2169342 257.17494202 C-43.60005264 257.93410919 -43.98317108 258.69327637 -44.37789917 259.47544861 C-46.58742692 263.63535895 -46.58742692 263.63535895 -45.85365295 268.12025452 C-45.85365295 278.02025452 -45.85365295 287.92025452 -45.85365295 298.12025452 C-74.56365295 298.12025452 -103.27365295 298.12025452 -132.85365295 298.12025452 C-130.90802568 292.28337269 -128.94757939 286.74186942 -126.4747467 281.15150452 C-126.1509201 280.41078705 -125.82709351 279.67006958 -125.49345398 278.90690613 C-124.42975959 276.47636398 -123.3604985 274.04831502 -122.29115295 271.62025452 C-121.5316163 269.88781921 -120.77242746 268.15523137 -120.01356506 266.42250061 C-118.02639455 261.88770951 -116.03452208 257.35499943 -114.04151917 252.82276917 C-112.14546416 248.50905404 -110.25361668 244.19349552 -108.36146545 239.87806702 C-103.08718424 227.8521987 -97.80380491 215.83033066 -92.51869202 203.80921936 C-90.19216927 198.51736152 -87.86628124 193.2252252 -85.54115295 187.93275452 C-85.16193695 187.06958618 -84.78272095 186.20641785 -84.39201355 185.3170929 C-79.16632866 173.41940689 -73.97775783 161.50656036 -68.82289124 149.57801819 C-64.22513566 138.95045447 -59.57452744 128.3463688 -54.91615295 117.74525452 C-54.52992767 116.86629517 -54.14370239 115.98733582 -53.74577332 115.08174133 C-52.20496295 111.57536952 -50.66408952 108.06902544 -49.12310791 104.56272888 C-45.67229429 96.70988971 -42.22894634 88.85380167 -38.79115295 80.99525452 C-38.51541443 80.36499359 -38.2396759 79.73473267 -37.95558167 79.08537292 C-33.75594075 69.48464112 -29.56833058 59.87868358 -25.38319397 50.2716217 C-22.19661885 42.95686201 -19.00793582 35.64302228 -15.81758118 28.32991028 C-15.1891823 26.88940344 -14.56088163 25.44885375 -13.93269348 24.008255 C-12.07668515 19.75230863 -10.21649879 15.49821406 -8.35365295 11.24525452 C-7.90288391 10.21150696 -7.45211487 9.1777594 -6.98768616 8.11268616 C-6.37993347 6.72811218 -6.37993347 6.72811218 -5.75990295 5.31556702 C-5.41250061 4.52166565 -5.06509827 3.72776428 -4.70716858 2.9098053 C-3.35682481 0.07856393 -3.33211865 0.14041733 0 0 Z M45.14634705 68.12025452 C35.13484682 89.88963403 25.25200559 111.71172676 15.57591248 133.63246155 C13.96952436 137.27113764 12.33877604 140.89760868 10.69322205 144.51869202 C9.0148001 147.77324911 9.0148001 147.77324911 9.14634705 150.12025452 C37.19634705 150.45025452 65.24634705 150.78025452 94.14634705 151.12025452 C100.82603455 163.36634827 107.50572205 175.61244202 114.18540955 187.85853577 C115.77103487 191.15598708 115.77103487 191.15598708 118.14634705 192.12025452 C118.44178406 191.62436829 118.73722107 191.12848206 119.04161072 190.61756897 C125.80933815 179.26964925 132.67299418 167.9874126 139.64634705 156.76478577 C142.53128051 152.11987709 145.39538188 147.46243693 148.25505066 142.80194092 C154.31664916 132.92330667 160.38194449 123.05778603 166.74009705 113.36634827 C168.23479059 111.42065644 168.23479059 111.42065644 168.14634705 110.12025452 C167.01756134 110.18100662 165.88877563 110.24175873 164.7257843 110.30435181 C153.99195543 110.85969716 143.26435935 111.233714 132.51798058 111.43890476 C126.99301463 111.55000639 121.4844649 111.72053665 115.96714783 112.03700256 C79.28161301 114.07734768 79.28161301 114.07734768 69.97703552 105.88215637 C62.29108725 97.8803107 57.44758687 87.92230293 52.96697235 77.8915062 C51.34227254 74.38472637 49.39038525 71.25956775 47.14634705 68.12025452 C46.48634705 68.12025452 45.82634705 68.12025452 45.14634705 68.12025452 Z " fill="#1F1F21" transform="translate(428.85365295410156,315.87974548339844)"/>
<path d="M0 0 C3.43548762 2.49072853 6.01560016 4.62252425 6.96484375 8.9140625 C7.21737776 10.87206591 7.36646102 12.84279999 7.5 14.8125 C4.50519083 15.6848412 1.86424089 15.92079766 -1.25 15.875 C-2.04921875 15.86597656 -2.8484375 15.85695313 -3.671875 15.84765625 C-4.27515625 15.83605469 -4.8784375 15.82445312 -5.5 15.8125 C-6.16 13.8325 -6.82 11.8525 -7.5 9.8125 C-8.49 9.8125 -9.48 9.8125 -10.5 9.8125 C-13.41380589 15.64011178 -13.05232315 21.60320742 -11.5 27.8125 C-8.99034386 27.10910434 -8.99034386 27.10910434 -6.5 25.8125 C-6.17 24.4925 -5.84 23.1725 -5.5 21.8125 C-1.21 22.1425 3.08 22.4725 7.5 22.8125 C7.13602352 29.97070417 7.13602352 29.97070417 4.375 33.625 C-1.00506822 37.71853017 -5.72756914 39.52538746 -12.5 38.8125 C-18.69049989 37.39211762 -21.98342892 35.08735663 -25.5 29.8125 C-28.51142216 23.50285356 -28.50555264 16.09161844 -26.3125 9.5 C-21.55980692 -1.59708998 -10.68159419 -3.62411231 0 0 Z " fill="#1F1F21" transform="translate(684.5,688.1875)"/>
<path d="M0 0 C4.95 0 9.9 0 15 0 C16.57391809 4.90898051 18.14027723 9.82028448 19.69970703 14.73388672 C20.23116753 16.40479333 20.76468085 18.07504847 21.30029297 19.74462891 C22.07020157 22.14577244 22.83267613 24.54916877 23.59375 26.953125 C23.83436157 27.69806213 24.07497314 28.44299927 24.32287598 29.21051025 C25.41110097 32.67155143 26 35.33418565 26 39 C21.38 39 16.76 39 12 39 C11.67 36.69 11.34 34.38 11 32 C8.03 32 5.06 32 2 32 C1.67 34.31 1.34 36.62 1 39 C-2.96 39 -6.92 39 -11 39 C-10.39793018 33.90977336 -9.2860884 29.2001006 -7.71484375 24.31640625 C-7.49429825 23.61603745 -7.27375275 22.91566864 -7.04652405 22.19407654 C-6.34862922 19.98189472 -5.64320588 17.77220086 -4.9375 15.5625 C-4.45978451 14.05289313 -3.98256613 12.54312884 -3.50585938 11.03320312 C-2.34389035 7.35329774 -1.1717467 3.67686034 0 0 Z M6 18 C5.67 19.32 5.34 20.64 5 22 C5.99 21.67 6.98 21.34 8 21 C7.34 20.01 6.68 19.02 6 18 Z " fill="#1F1F21" transform="translate(273,687)"/>
<path d="M0 0 C9.9 0 19.8 0 30 0 C30.66 1.32 31.32 2.64 32 4 C32.66 2.68 33.32 1.36 34 0 C37.96 0 41.92 0 46 0 C46 7.59 46 15.18 46 23 C40.06 23 34.12 23 28 23 C27.67 22.34 27.34 21.68 27 21 C26.67 21.66 26.34 22.32 26 23 C23.36 23 20.72 23 18 23 C18 17.72 18 12.44 18 7 C17.01 7 16.02 7 15 7 C15 12.28 15 17.56 15 23 C11.7 23 8.4 23 5 23 C5 17.72 5 12.44 5 7 C3.35 7 1.7 7 0 7 C0 4.69 0 2.38 0 0 Z " fill="#1F1F21" transform="translate(713,687)"/>
<path d="M0 0 C1.98586431 3.14043658 2.29154331 5.74629922 2.4140625 9.421875 C2.45273437 10.44667969 2.49140625 11.47148438 2.53125 12.52734375 C2.5621875 13.59082031 2.593125 14.65429688 2.625 15.75 C2.66367187 16.82894531 2.70234375 17.90789063 2.7421875 19.01953125 C2.83634631 21.67951775 2.92197387 24.3394994 3 27 C2.02160156 26.98839844 1.04320312 26.97679687 0.03515625 26.96484375 C-8.56649253 26.86261228 -8.56649253 26.86261228 -17.125 27.625 C-20.97897632 27.99796545 -22.74120311 28.01278631 -26 26 C-28.63590225 23.54588411 -28.97746954 22.17702501 -29.4375 18.5625 C-28.93042081 14.43342657 -27.95428331 12.86987522 -25 10 C-24.01 9.67 -23.02 9.34 -22 9 C-23.98 8.34 -25.96 7.68 -28 7 C-27.65415128 4.4407195 -27.31949609 2.47924414 -25.875 0.3125 C-18.55119274 -4.81416508 -7.63894068 -4.2473778 0 0 Z M-15 6 C-15.33 6.66 -15.66 7.32 -16 8 C-14.35 8 -12.7 8 -11 8 C-11 7.34 -11 6.68 -11 6 C-12.32 6 -13.64 6 -15 6 Z M-14 15 C-14.33 16.32 -14.66 17.64 -15 19 C-13.68 18.67 -12.36 18.34 -11 18 C-11 17.01 -11 16.02 -11 15 C-11.99 15 -12.98 15 -14 15 Z " fill="#1F1F21" transform="translate(487,699)"/>
<path d="M0 0 C4.62 0 9.24 0 14 0 C14 9.24 14 18.48 14 28 C18.62 28 23.24 28 28 28 C28 31.63 28 35.26 28 39 C18.76 39 9.52 39 0 39 C0 26.13 0 13.26 0 0 Z " fill="#1F1F21" transform="translate(606,687)"/>
<path d="M0 0 C4.62 0 9.24 0 14 0 C14 9.24 14 18.48 14 28 C18.62 28 23.24 28 28 28 C28 31.63 28 35.26 28 39 C18.76 39 9.52 39 0 39 C0 26.13 0 13.26 0 0 Z " fill="#1F1F21" transform="translate(553,687)"/>
<path d="M0 0 C8.25 0 16.5 0 25 0 C25 9 25 9 22.8125 11.40625 C22.36132812 11.921875 21.91015625 12.4375 21.4453125 12.96875 C20.96835937 13.4740625 20.49140625 13.979375 20 14.5 C19.52304687 15.03625 19.04609375 15.5725 18.5546875 16.125 C17.38728118 17.43249508 16.19598165 18.71859109 15 20 C18.3 20.33 21.6 20.66 25 21 C25 23.64 25 26.28 25 29 C16.42 29 7.84 29 -1 29 C-1 20 -1 20 3.5 14.5 C3.92925781 13.96375 4.35851562 13.4275 4.80078125 12.875 C5.84998637 11.56932252 6.92265324 10.28255566 8 9 C5.36 8.67 2.72 8.34 0 8 C0 5.36 0 2.72 0 0 Z " fill="#1F1F21" transform="translate(322,697)"/>
<path d="M0 0 C3.96 0 7.92 0 12 0 C12 2.97 12 5.94 12 9 C13.98 9 15.96 9 18 9 C18 11.64 18 14.28 18 17 C16.02 17 14.04 17 12 17 C12.33 20.63 12.66 24.26 13 28 C14.65 28.33 16.3 28.66 18 29 C18 31.97 18 34.94 18 38 C12.68610043 39.32847489 8.76327173 39.71836996 3.625 37.625 C1 36 1 36 0 34 C-0.07194869 31.11629667 -0.09291708 28.25760336 -0.0625 25.375 C-0.05798828 24.57320312 -0.05347656 23.77140625 -0.04882812 22.9453125 C-0.03703168 20.96350994 -0.01909605 18.98174567 0 17 C-1.65 17 -3.3 17 -5 17 C-5 14.36 -5 11.72 -5 9 C-3.35 9 -1.7 9 0 9 C0 6.03 0 3.06 0 0 Z " fill="#1F1F21" transform="translate(373,688)"/>
<path d="M0 0 C0 3.96 0 7.92 0 12 C-0.969375 12.12375 -1.93875 12.2475 -2.9375 12.375 C-3.948125 12.58125 -4.95875 12.7875 -6 13 C-7.52106634 16.04213267 -7.37429338 19.28047572 -7.5625 22.625 C-7.60568359 23.33140625 -7.64886719 24.0378125 -7.69335938 24.765625 C-7.79944751 26.51018537 -7.90022889 28.25506697 -8 30 C-12.29 30 -16.58 30 -21 30 C-21 20.43 -21 10.86 -21 1 C-16.71 1 -12.42 1 -8 1 C-6 0 -6 0 0 0 Z " fill="#1F1F21" transform="translate(436,696)"/>
</svg>
